<svg viewBox="0 0 240 240" xmlns="http://www.w3.org/2000/svg" role="img" aria-label="Wondersun">
  <defs>
    <clipPath id="ws-lens">
      <circle cx="140" cy="100" r="74" />
    </clipPath>
  </defs>

  <!-- Handle (red), behind the lens ring -->
  <line x1="112" y1="130" x2="96" y2="146" stroke="#163a6b" stroke-width="30" stroke-linecap="round" />
  <line x1="98" y1="146" x2="50" y2="196" stroke="#b01327" stroke-width="30" stroke-linecap="round" />

  <!-- Lens interior -->
  <circle cx="140" cy="100" r="74" fill="#ffffff" />

  <!-- Sun rays, clipped to the lens -->
  <g clip-path="url(#ws-lens)">
    <g transform="translate(140,96)">
      <!-- top: gold -->
      <path d="M0,-70 L9,-34 L-9,-34 Z" fill="#f6b71e" transform="rotate(-18)" />
      <path d="M0,-70 L9,-34 L-9,-34 Z" fill="#f6b71e" transform="rotate(3)" />
      <path d="M0,-70 L9,-34 L-9,-34 Z" fill="#f6b71e" transform="rotate(24)" />
      <!-- upper-left: blue -->
      <path d="M0,-70 L9,-34 L-9,-34 Z" fill="#2f74c9" transform="rotate(-42)" />
      <path d="M0,-70 L9,-34 L-9,-34 Z" fill="#5a9be0" transform="rotate(-64)" />
      <!-- right: red -->
      <path d="M0,-70 L9,-34 L-9,-34 Z" fill="#b01327" transform="rotate(76)" />
      <path d="M0,-70 L9,-34 L-9,-34 Z" fill="#b01327" transform="rotate(98)" />
      <path d="M0,-70 L9,-34 L-9,-34 Z" fill="#b01327" transform="rotate(120)" />
      <!-- lower-left: solid blue "sea" fan -->
      <path d="M0,-72 L19,-34 L-19,-34 Z" fill="#2f74c9" transform="rotate(150)" />
      <path d="M0,-72 L19,-34 L-19,-34 Z" fill="#2f74c9" transform="rotate(175)" />
      <path d="M0,-72 L19,-34 L-19,-34 Z" fill="#5a9be0" transform="rotate(200)" />
      <path d="M0,-72 L19,-34 L-19,-34 Z" fill="#2f74c9" transform="rotate(222)" />
      <path d="M0,-72 L19,-34 L-19,-34 Z" fill="#2f74c9" transform="rotate(245)" />
    </g>
  </g>

  <!-- Lens ring -->
  <circle cx="140" cy="100" r="74" fill="none" stroke="#163a6b" stroke-width="16" />

  <!-- Sun core -->
  <circle cx="140" cy="96" r="32" fill="#f6b71e" />
</svg>
